<?xml version="1.0" encoding="UTF-8" standalone="no"?>
<!-- Generator: Adobe Illustrator 19.0.0, SVG Export Plug-In . SVG Version: 6.00 Build 0)  -->

<svg
   xmlns:dc="http://purl.org/dc/elements/1.1/"
   xmlns:cc="http://creativecommons.org/ns#"
   xmlns:rdf="http://www.w3.org/1999/02/22-rdf-syntax-ns#"
   xmlns:svg="http://www.w3.org/2000/svg"
   xmlns="http://www.w3.org/2000/svg"
   xmlns:sodipodi="http://sodipodi.sourceforge.net/DTD/sodipodi-0.dtd"
   xmlns:inkscape="http://www.inkscape.org/namespaces/inkscape"
   version="1.1"
   id="Layer_1"
   x="0px"
   y="0px"
   viewBox="0 0 1235.1926 713.87559"
   xml:space="preserve"
   inkscape:version="0.91 r13725"
   sodipodi:docname="logo.svg"
   width="1235.1926"
   height="713.87561"><metadata
     id="metadata71"><rdf:RDF><cc:Work
         rdf:about=""><dc:format>image/svg+xml</dc:format><dc:type
           rdf:resource="http://purl.org/dc/dcmitype/StillImage" /><dc:title></dc:title></cc:Work></rdf:RDF></metadata><defs
     id="defs69" /><sodipodi:namedview
     pagecolor="#ffffff"
     bordercolor="#666666"
     borderopacity="1"
     objecttolerance="10"
     gridtolerance="10"
     guidetolerance="10"
     inkscape:pageopacity="0"
     inkscape:pageshadow="2"
     inkscape:window-width="640"
     inkscape:window-height="480"
     id="namedview67"
     showgrid="false"
     fit-margin-top="0"
     fit-margin-left="0"
     fit-margin-right="0"
     fit-margin-bottom="0"
     inkscape:zoom="0.6726207"
     inkscape:cx="620.04134"
     inkscape:cy="321.9393"
     inkscape:current-layer="Layer_1" /><g
     id="g4203"
     transform="translate(369.4963,0)"><path
       id="path3"
       d="M 496.2,248.1 C 496.2,111.1 385.1,0 248.1,0 111.1,0 0,111.1 0,248.1 c 0,137 111.1,248.1 248.1,248.1 137,0 248.1,-111.1 248.1,-248.1 z"
       style="fill:#32bea6"
       inkscape:connector-curvature="0" /><path
       id="path5"
       d="m 312.2,140.9 c 0,44.3 -24.3,88.7 -54.4,88.7 -30,0 -54.4,-44.5 -54.4,-88.7 0,-44.2 24.3,-71.5 54.4,-71.5 30.1,0 54.4,27.3 54.4,71.5 z"
       style="fill:#f6a2a3"
       inkscape:connector-curvature="0" /><path
       id="path7"
       d="m 298.6,156.6 c 0,32.4 -17.8,63 -39.8,63 -22,0 -39.8,-30.6 -39.8,-63 0,-32.5 17.8,-54.4 39.8,-54.4 22,-0.1 39.8,21.9 39.8,54.4 z"
       style="fill:#e84849"
       inkscape:connector-curvature="0" /><path
       id="path9"
       d="m 386,233.4 c -35.2,26.7 -85.3,34.3 -103.5,10.3 -18.2,-23.9 2.5,-70.2 37.8,-96.9 35.2,-26.8 71.7,-23.9 89.8,0 18.1,24 11.1,59.8 -24.1,86.6 z"
       style="fill:#f6a2a3"
       inkscape:connector-curvature="0" /><path
       id="path11"
       d="m 365.3,232 c -25.8,19.6 -61,23.9 -74.3,6.4 -13.3,-17.5 0.3,-50.2 26.1,-69.8 25.9,-19.6 54.2,-18.7 67.5,-1.2 13.2,17.5 6.5,45 -19.3,64.6 z"
       style="fill:#e84849"
       inkscape:connector-curvature="0" /><path
       id="path13"
       d="m 236.8,374.6 c -17.3,-40.7 -12.3,-91.2 15.4,-102.9 27.6,-11.7 67.4,19.7 84.7,60.4 17.3,40.7 5.5,75.3 -22.1,87.1 -27.7,11.7 -60.8,-3.9 -78,-44.6 z"
       style="fill:#f6a2a3"
       inkscape:connector-curvature="0" /><path
       id="path15"
       d="m 243.1,354.8 c -12.7,-29.9 -8.2,-65 12.1,-73.6 20.2,-8.6 48.6,12.6 61.3,42.4 12.7,29.9 4.8,57.1 -15.4,65.7 -20.3,8.7 -45.3,-4.6 -58,-34.5 z"
       style="fill:#e84849"
       inkscape:connector-curvature="0" /><path
       id="path17"
       d="m 134.3,216.9 c 44.2,-0.5 89,23.2 89.3,53.3 0.4,30 -43.8,54.9 -88,55.4 -44.3,0.5 -71.8,-23.5 -72.2,-53.5 -0.4,-30 26.6,-54.6 70.9,-55.2 z"
       style="fill:#f6a2a3"
       inkscape:connector-curvature="0" /><path
       id="path19"
       d="m 150.1,230.3 c 32.4,-0.4 63.2,17.1 63.5,39.1 0.2,22 -30.1,40.2 -62.6,40.6 -32.4,0.4 -54.6,-17.2 -54.9,-39.2 -0.2,-22 21.5,-40.1 54,-40.5 z"
       style="fill:#e84849"
       inkscape:connector-curvature="0" /><path
       id="path21"
       d="m 204.5,133.8 c 31.6,30.9 46.5,79.4 25.5,100.8 -21,21.5 -69.8,7.9 -101.4,-23 -31.7,-30.9 -34.2,-67.4 -13.2,-88.8 20.9,-21.6 57.5,-19.9 89.1,11 z"
       style="fill:#f6a2a3"
       inkscape:connector-curvature="0" /><path
       id="path23"
       d="m 206.2,154.5 c 23.2,22.6 32.6,56.7 17.3,72.5 -15.4,15.7 -49.7,7.2 -72.9,-15.5 -23.2,-22.7 -26.5,-50.8 -11.1,-66.5 15.3,-15.8 43.5,-13.2 66.7,9.5 z"
       style="fill:#e84849"
       inkscape:connector-curvature="0" /><path
       id="path25"
       d="m 357,355.3 c -44.1,-3.6 -86.4,-31.5 -84,-61.4 2.4,-29.9 48.7,-50.6 92.8,-47 44.1,3.6 69.3,30 66.9,60 -2.5,29.9 -31.7,52 -75.7,48.4 z"
       style="fill:#f6a2a3"
       inkscape:connector-curvature="0" /><path
       id="path27"
       d="m 342.5,340.4 c -32.3,-2.6 -61.4,-22.9 -59.6,-44.8 1.8,-21.9 33.7,-37.2 66,-34.6 32.3,2.6 52.8,22.2 51,44.1 -1.8,22 -25.1,38 -57.4,35.3 z"
       style="fill:#e84849"
       inkscape:connector-curvature="0" /><path
       id="path29"
       d="m 139.8,336.7 c 16.6,-41 55.8,-73.1 83.6,-61.8 27.8,11.3 33.8,61.5 17.2,102.6 -16.6,41 -49.4,57.2 -77.2,45.9 -27.9,-11.3 -40.2,-45.7 -23.6,-86.7 z"
       style="fill:#f6a2a3"
       inkscape:connector-curvature="0" /><path
       id="path31"
       d="m 158.2,327.2 c 12.1,-30 40.2,-51.7 60.6,-43.5 20.4,8.3 25.5,43.3 13.3,73.4 -12.1,30.1 -36.9,43.8 -57.3,35.5 -20.4,-8.2 -28.7,-35.3 -16.6,-65.4 z"
       style="fill:#e84849"
       inkscape:connector-curvature="0" /><path
       id="path33"
       d="m 173.5,267.9 c 0,-34.9 31.9,-63.3 71.4,-63.3 39.4,0 71.4,28.3 71.4,63.3 0,34.9 -32,63.3 -71.4,63.3 -39.4,0 -71.4,-28.3 -71.4,-63.3 z"
       style="fill:#f4d72f"
       inkscape:connector-curvature="0" /><path
       id="path35"
       d="m 197.9,267.9 c 0,-23 21.1,-41.7 47,-41.7 26,0 47.1,18.7 47.1,41.7 0,23 -21.1,41.7 -47.1,41.7 -26,0 -47,-18.6 -47,-41.7 z"
       style="fill:#e5ce27"
       inkscape:connector-curvature="0" /></g><g
     id="g37"
     transform="translate(369.49629,0)" /><g
     id="g39"
     transform="translate(369.49629,0)" /><g
     id="g41"
     transform="translate(369.49629,0)" /><g
     id="g43"
     transform="translate(369.49629,0)" /><g
     id="g45"
     transform="translate(369.49629,0)" /><g
     id="g47"
     transform="translate(369.49629,0)" /><g
     id="g49"
     transform="translate(369.49629,0)" /><g
     id="g51"
     transform="translate(369.49629,0)" /><g
     id="g53"
     transform="translate(369.49629,0)" /><g
     id="g55"
     transform="translate(369.49629,0)" /><g
     id="g57"
     transform="translate(369.49629,0)" /><g
     id="g59"
     transform="translate(369.49629,0)" /><g
     id="g61"
     transform="translate(369.49629,0)" /><g
     id="g63"
     transform="translate(369.49629,0)" /><g
     id="g65"
     transform="translate(369.49629,0)" /><text
     xml:space="preserve"
     style="font-style:normal;font-weight:normal;font-size:40px;line-height:125%;font-family:Sans;letter-spacing:0px;word-spacing:0px;fill:#000000;fill-opacity:1;stroke:none;stroke-width:1px;stroke-linecap:butt;stroke-linejoin:miter;stroke-opacity:1"
     x="11.55"
     y="631.78809"
     id="text4199"
     sodipodi:linespacing="125%"><tspan
       sodipodi:role="line"
       id="tspan4201"
       x="11.55"
       y="631.78809"
       style="font-style:normal;font-variant:normal;font-weight:normal;font-stretch:normal;font-size:412.5px;line-height:125%;font-family:Gabrielle;-inkscape-font-specification:'Gabrielle, Normal';text-align:start;writing-mode:lr-tb;text-anchor:start;fill:#4d4d4d">pyexodus</tspan></text>
</svg>